<svg xmlns:xlink="http://www.w3.org/1999/xlink" width="142" height="44" viewBox="0 0 142 44" fill="none" xmlns="http://www.w3.org/2000/svg">
<path d="M74.8116 11.0551C74.8116 12.6406 73.5343 13.9179 71.9487 13.9179C70.3631 13.9179 69.0859 12.6406 69.0859 11.0551C69.0859 9.46947 70.3191 8.19219 71.9487 8.19219C73.5784 8.23624 74.8116 9.51351 74.8116 11.0551ZM63.0078 16.8248C63.0078 17.0891 63.0078 17.5295 63.0078 17.5295C63.0078 17.5295 61.6424 15.7678 58.7355 15.7678C53.9347 15.7678 50.191 19.4234 50.191 24.4885C50.191 29.5095 53.8907 33.2092 58.7355 33.2092C61.6865 33.2092 63.0078 31.4034 63.0078 31.4034V32.1522C63.0078 32.5045 63.272 32.7688 63.6244 32.7688H67.192V16.2082C67.192 16.2082 63.9327 16.2082 63.6244 16.2082C63.272 16.2082 63.0078 16.5165 63.0078 16.8248ZM63.0078 27.4394C62.3471 28.4084 61.0258 29.2452 59.4402 29.2452C56.6214 29.2452 54.4632 27.4835 54.4632 24.4885C54.4632 21.4935 56.6214 19.7317 59.4402 19.7317C60.9818 19.7317 62.3912 20.6126 63.0078 21.5375V27.4394ZM69.8346 16.2082H74.0628V32.7688H69.8346V16.2082ZM132.994 15.7678C130.087 15.7678 128.721 17.5295 128.721 17.5295V8.23624H124.493V32.7688C124.493 32.7688 127.753 32.7688 128.061 32.7688C128.413 32.7688 128.677 32.4605 128.677 32.1522V31.4034C128.677 31.4034 130.043 33.2092 132.95 33.2092C137.751 33.2092 141.494 29.5095 141.494 24.4885C141.494 19.4675 137.751 15.7678 132.994 15.7678ZM132.289 29.2012C130.659 29.2012 129.382 28.3644 128.721 27.3954V21.4935C129.382 20.6126 130.792 19.6877 132.289 19.6877C135.108 19.6877 137.266 21.4494 137.266 24.4444C137.266 27.4394 135.108 29.2012 132.289 29.2012ZM122.291 22.9469V32.8128H118.063V23.4314C118.063 20.7007 117.182 19.5996 114.804 19.5996C113.526 19.5996 112.205 20.2603 111.368 21.2292V32.7688H107.14V16.2082H110.487C110.84 16.2082 111.104 16.5165 111.104 16.8248V17.5295C112.337 16.2523 113.967 15.7678 115.596 15.7678C117.446 15.7678 118.988 16.2963 120.221 17.3534C121.718 18.5866 122.291 20.1722 122.291 22.9469ZM96.8777 15.7678C93.9707 15.7678 92.6054 17.5295 92.6054 17.5295V8.23624H88.3772V32.7688C88.3772 32.7688 91.6364 32.7688 91.9447 32.7688C92.2971 32.7688 92.5613 32.4605 92.5613 32.1522V31.4034C92.5613 31.4034 93.9267 33.2092 96.8336 33.2092C101.634 33.2092 105.378 29.5095 105.378 24.4885C105.422 19.4675 101.678 15.7678 96.8777 15.7678ZM96.173 29.2012C94.5433 29.2012 93.266 28.3644 92.6054 27.3954V21.4935C93.266 20.6126 94.6755 19.6877 96.173 19.6877C98.9918 19.6877 101.15 21.4494 101.15 24.4444C101.15 27.4394 98.9918 29.2012 96.173 29.2012ZM84.7215 15.7678C85.9988 15.7678 86.6594 15.988 86.6594 15.988V19.9079C86.6594 19.9079 83.1359 18.7187 80.9337 21.2292V32.8128H76.7055V16.2082C76.7055 16.2082 79.9647 16.2082 80.273 16.2082C80.6254 16.2082 80.8897 16.5165 80.8897 16.8248V17.5295C81.6825 16.6046 83.4002 15.7678 84.7215 15.7678ZM40.8096 31.2713C40.5894 30.7427 40.3691 30.1702 40.1489 29.6857C39.7966 28.8929 39.4442 28.1441 39.1359 27.4394L39.0919 27.3954C36.0528 20.7888 32.7936 14.0941 29.3581 7.48749L29.226 7.22322C28.8736 6.56256 28.5213 5.85786 28.1689 5.15315C27.7285 4.36036 27.2881 3.52352 26.5834 2.73073C25.174 0.968969 23.1479 0 20.9898 0C18.7876 0 16.8056 0.968969 15.3521 2.64264C14.6915 3.43544 14.207 4.27227 13.7665 5.06506C13.4142 5.76977 13.0618 6.47447 12.7095 7.13514L12.5774 7.3994C9.18596 14.006 5.88266 20.7007 2.84362 27.3073L2.79958 27.3954C2.49127 28.1001 2.13892 28.8489 1.78656 29.6416C1.56634 30.1261 1.34612 30.6547 1.1259 31.2272C0.55333 32.8569 0.377153 34.3984 0.597374 35.984C1.08186 39.2873 3.28406 42.0621 6.3231 43.2953C7.46824 43.7798 8.65743 44 9.89067 44C10.243 44 10.6835 43.956 11.0358 43.9119C12.4893 43.7357 13.9868 43.2513 15.4402 42.4144C17.246 41.4014 18.9637 39.9479 20.9017 37.8338C22.8396 39.9479 24.6014 41.4014 26.3631 42.4144C27.8166 43.2513 29.3141 43.7357 30.7675 43.9119C31.1199 43.956 31.5603 44 31.9127 44C33.1459 44 34.3792 43.7798 35.4803 43.2953C38.5633 42.0621 40.7215 39.2432 41.206 35.984C41.5583 34.4424 41.3822 32.9009 40.8096 31.2713ZM20.9457 33.5616C18.5673 30.5666 17.0258 27.7477 16.4973 25.3694C16.2771 24.3564 16.233 23.4755 16.3651 22.6827C16.4532 21.978 16.7175 21.3614 17.0698 20.8328C17.9067 19.6436 19.3161 18.8949 20.9457 18.8949C22.5754 18.8949 24.0288 19.5996 24.8216 20.8328C25.174 21.3614 25.4382 21.978 25.5263 22.6827C25.6584 23.4755 25.6144 24.4004 25.3942 25.3694C24.8656 27.7037 23.3241 30.5225 20.9457 33.5616ZM38.5193 35.6316C38.211 37.9219 36.6694 39.9039 34.5113 40.7848C33.4542 41.2252 32.3091 41.3574 31.1639 41.2252C30.0628 41.0931 28.9617 40.7407 27.8166 40.0801C26.231 39.1992 24.6454 37.8338 22.7956 35.8078C25.7025 32.2402 27.4642 28.981 28.1249 26.0741C28.4332 24.7087 28.4773 23.4755 28.3451 22.3303C28.1689 21.2292 27.7726 20.2162 27.1559 19.3353C25.7906 17.3534 23.5003 16.2082 20.9457 16.2082C18.3912 16.2082 16.1009 17.3974 14.7355 19.3353C14.1189 20.2162 13.7225 21.2292 13.5463 22.3303C13.3701 23.4755 13.4142 24.7528 13.7665 26.0741C14.4272 28.981 16.233 32.2843 19.0959 35.8519C17.2901 37.8779 15.6604 39.2432 14.0749 40.1241C12.9297 40.7848 11.8286 41.1371 10.7275 41.2693C9.53831 41.4014 8.39317 41.2252 7.38016 40.8288C5.222 39.9479 3.68046 37.966 3.37215 35.6757C3.24002 34.5746 3.3281 33.4735 3.76854 32.2402C3.90068 31.7998 4.1209 31.3594 4.34112 30.8308C4.64943 30.1261 5.00178 29.3774 5.35413 28.6286L5.39817 28.5405C8.43721 21.978 11.6965 15.2833 15.0879 8.76476L15.22 8.5005C15.5724 7.83984 15.9247 7.13514 16.2771 6.47447C16.6294 5.76977 17.0258 5.10911 17.5103 4.53654C18.4352 3.47948 19.6684 2.90691 21.0338 2.90691C22.3992 2.90691 23.6324 3.47948 24.5573 4.53654C25.0418 5.10911 25.4382 5.76977 25.7906 6.47447C26.1429 7.13514 26.4953 7.83984 26.8476 8.5005L26.9798 8.76476C30.3271 15.3273 33.5864 22.022 36.6254 28.5846V28.6286C36.9778 29.3333 37.2861 30.1261 37.6384 30.8308C37.8586 31.3594 38.0789 31.7998 38.211 32.2402C38.5633 33.3854 38.6955 34.4865 38.5193 35.6316Z" fill="#FFFFFF"></path>
</svg>