<svg xmlns:xlink="http://www.w3.org/1999/xlink" width="170" height="28" viewBox="0 0 170 28" fill="currentColor" xmlns="http://www.w3.org/2000/svg">
<path d="M66.8591 2.55859C66.8591 1.88001 67.1286 1.22922 67.6085 0.749395C68.0883 0.269566 68.7391 0 69.4177 0C70.0963 0 70.747 0.269566 71.2269 0.749395C71.7067 1.22922 71.9763 1.88001 71.9763 2.55859C71.9516 3.22065 71.6712 3.84735 71.194 4.307C70.7169 4.76665 70.0802 5.02346 69.4177 5.02346C68.7552 5.02346 68.1184 4.76665 67.6413 4.307C67.1642 3.84735 66.8838 3.22065 66.8591 2.55859Z" fill="#FFFFFF"></path>
<path d="M107.228 19.6224C107.228 18.2024 108.372 17.0549 109.781 17.0549C110.462 17.0549 111.114 17.3252 111.596 17.8064C112.077 18.2876 112.347 18.9402 112.347 19.6206C112.347 20.3011 112.077 20.9537 111.596 21.4349C111.114 21.916 110.462 22.1864 109.781 22.1864C108.374 22.1864 107.228 21.0371 107.228 19.6206" fill="#FFFFFF"></path>
<path d="M24.8686 18.5124C22.6664 18.5124 21.134 16.7627 21.134 14.2612C21.134 11.7614 22.6663 10.0135 24.8703 10.0135C27.085 10.0135 28.6334 11.7614 28.6334 14.2612C28.6334 16.8019 27.1189 18.5124 24.8686 18.5124ZM24.8686 6.27714C20.2075 6.27714 16.824 9.63573 16.824 14.2612C16.824 18.8883 20.2093 22.2452 24.8686 22.2452C29.5492 22.2452 32.9452 18.8883 32.9452 14.2629C32.9452 9.63573 29.5492 6.27714 24.8703 6.27714M61.9039 14.662C61.7417 14.3483 61.5367 14.0587 61.2946 13.8015L61.152 13.6536L61.3018 13.511C61.5156 13.2848 61.7347 13.0175 61.9449 12.7075L66.0607 6.59251H61.0648L57.9734 11.3765C57.7988 11.6331 57.4461 11.7614 56.9169 11.7614H56.2131V2.71721C56.2131 0.908732 55.0853 0.662851 53.8683 0.662851H51.7836L51.7889 22.01H56.2148V15.6064H56.63C57.1342 15.6064 57.4763 15.6652 57.6348 15.9396L60.0758 20.5472C60.7582 21.7979 61.4371 22.01 62.7164 22.01H66.1071L63.5806 17.8336L61.9058 14.662M83.3883 6.2415C81.1362 6.2415 79.7 7.24284 78.8947 8.08917L78.6275 8.36L78.5312 7.99118C78.296 7.08427 77.4978 6.58716 76.2987 6.58716H74.3156L74.3281 22.0046H78.7236V14.899C78.7236 14.2041 78.8127 13.6019 78.998 13.0513C79.4862 11.3854 80.851 10.3502 82.5562 10.3502C83.9281 10.3502 84.4645 11.0754 84.4645 12.9462V19.6616C84.4645 21.2581 85.2038 22.0046 86.802 22.0046H88.8938L88.8868 12.1979C88.8868 8.30299 86.9856 6.24329 83.3883 6.24329M69.471 6.59251H67.3881L67.4024 18.5142V22.01H69.6242L69.7026 22.0135L70.7397 22.01H71.7695V22.0046H71.7766L71.7855 8.93551C71.7855 7.35866 71.0319 6.59429 69.4729 6.59429M42.1319 18.5124C39.9296 18.5124 38.3956 16.7627 38.3956 14.2612C38.3956 11.7614 39.9297 10.0135 42.1337 10.0135C44.3431 10.0135 45.8968 11.7614 45.8968 14.2612C45.8968 16.8019 44.3823 18.5124 42.1337 18.5124H42.1319ZM42.1319 6.27714C37.4673 6.27714 34.0819 9.63573 34.0819 14.2612C34.0819 18.8883 37.4673 22.2452 42.1337 22.2452C46.8073 22.2452 50.2103 18.8883 50.2103 14.2629C50.2103 9.63573 46.8073 6.27714 42.1337 6.27714" fill="#FFFFFF"></path>
<path d="M136.342 18.5121C134.14 18.5121 132.604 16.7624 132.604 14.2608C132.604 11.761 134.14 10.0131 136.342 10.0131C138.555 10.0131 140.107 11.761 140.107 14.2608C140.107 16.8016 138.592 18.5121 136.342 18.5121ZM136.342 6.27679C131.677 6.27679 128.294 9.63539 128.294 14.2608C128.294 18.888 131.677 22.2448 136.342 22.2448C141.017 22.2448 144.419 18.888 144.419 14.2626C144.419 9.63538 141.015 6.27679 136.342 6.27679Z" fill="#FFFFFF"></path>
<path d="M98.1537 17.8333C95.7501 17.8333 94.8949 15.738 94.8949 13.7727C94.8949 12.9068 95.114 10.0863 97.9238 10.0863C99.3189 10.0863 101.177 10.4854 101.177 13.9171C101.177 17.1545 99.5328 17.8333 98.1537 17.8333ZM103.46 6.55132C102.626 6.55132 101.984 6.88451 101.662 7.49208L101.541 7.72727L101.338 7.5491C100.629 6.93618 99.3564 6.20744 97.2913 6.20744C93.1808 6.20744 90.4138 9.29521 90.4138 13.8868C90.4138 18.4766 93.2771 21.6837 97.3733 21.6837C98.772 21.6837 99.8784 21.3559 100.755 20.6931L101.094 20.4383V20.8659C101.094 22.9256 99.7626 24.0623 97.3483 24.0623C96.1741 24.0623 95.1069 23.7773 94.3907 23.5171C93.4606 23.2356 92.9118 23.469 92.5358 24.4044L92.1866 25.2668L91.693 26.5283L91.9977 26.6904C93.5443 27.51 95.5559 28 97.3733 28C101.115 28 105.487 26.0846 105.487 20.6931L105.503 6.55132H103.46Z" fill="#FFFFFF"></path>
<path d="M8.50146 18.336L4.92372 18.3324V14.0563C4.92372 13.1404 5.27829 12.6665 6.06048 12.556H8.50146C10.2422 12.556 11.3683 13.6536 11.3701 15.43C11.3683 17.2545 10.2707 18.3342 8.50146 18.3342V18.336ZM4.92372 5.67135C4.92372 4.68604 5.34067 4.21744 6.25471 4.15686H8.08637C9.65609 4.15686 10.5968 5.09584 10.5968 6.66913C10.5968 7.86646 9.95183 9.26513 8.14335 9.26513H4.92372V5.67135ZM13.0699 11.0665L12.4231 10.703L12.9879 10.2201C13.6454 9.65533 14.7448 8.38495 14.7448 6.1934C14.7448 2.83659 12.1434 0.66998 8.11486 0.66998H2.99408C2.41788 0.690988 1.87189 0.93288 1.4692 1.34553C1.0665 1.75817 0.837993 2.30994 0.831055 2.88647V21.9334H8.20567C12.6832 21.9334 15.5732 19.4959 15.5732 15.7204C15.5732 13.6874 14.6396 11.9502 13.0699 11.0665Z" fill="#FFFFFF"></path>
<path d="M164.052 6.29315C163.144 6.29649 162.249 6.50365 161.433 6.89931C160.616 7.29498 159.899 7.86906 159.334 8.57913L159.016 8.9818L158.767 8.53102C157.951 7.04683 156.551 6.29315 154.603 6.29315C152.559 6.29315 151.189 7.43347 150.553 8.11053L150.136 8.56131L149.976 7.96799C149.744 7.11275 148.984 6.64415 147.832 6.64415H145.985L145.967 22.0028H150.163V15.2233C150.163 14.6282 150.238 14.042 150.386 13.4273C150.787 11.7881 151.888 10.0259 153.739 10.2023C154.879 10.3128 155.439 11.1947 155.439 12.8981V22.0028H159.665V15.2233C159.665 14.4803 159.735 13.9244 159.902 13.3685C160.241 11.8041 161.392 10.2005 163.177 10.2005C164.47 10.2005 164.948 10.931 164.948 12.8981V19.7578C164.948 21.3079 165.639 22.0028 167.191 22.0028H169.165L169.169 12.1979C169.169 8.2798 167.444 6.29315 164.052 6.29315ZM125.862 16.67C125.849 16.6861 124.044 18.589 121.666 18.589C119.499 18.589 117.311 17.2598 117.311 14.2932C117.311 11.731 119.007 9.94039 121.438 9.94039C122.225 9.94039 123.123 10.2219 123.264 10.6976L123.284 10.7778C123.373 11.1053 123.569 11.3941 123.839 11.5993C124.11 11.8045 124.441 11.9147 124.78 11.9128L127.079 11.9163V9.90653C127.079 7.25529 123.706 6.29315 121.438 6.29315C116.584 6.29315 113.063 9.67134 113.063 14.3253C113.063 18.9756 116.545 22.3503 121.349 22.3503C125.514 22.3503 127.781 19.6117 127.802 19.585L127.923 19.4353L126.102 16.4153L125.862 16.67Z" fill="#FFFFFF"></path>
</svg>