<svg xmlns:xlink="http://www.w3.org/1999/xlink" width="188" height="30" viewBox="0 0 188 30" fill="none" xmlns="http://www.w3.org/2000/svg">
<path fill-rule="evenodd" clip-rule="evenodd" d="M9.92372 0.360153C8.43156 0.991763 1.03002 6.39164 0.831601 6.99317C0.729699 7.30202 0.955499 7.67281 1.33303 7.81781C1.75096 7.97807 3.679 6.92404 6.26021 5.12438C8.59272 3.49845 10.7389 2.16789 11.0294 2.16789C11.3203 2.16789 13.4687 3.50024 15.8044 5.12842C19.6573 7.81512 21.3708 8.43955 21.3708 7.15747C21.3708 6.92359 20.5628 6.09222 19.5752 5.31023C18.5876 4.52824 17.7796 3.50114 17.7796 3.028C17.7796 2.37439 17.4608 2.16789 16.4526 2.16789C15.7231 2.16789 14.3818 1.66288 13.4723 1.04563C11.7009 -0.156536 11.3189 -0.230157 9.92372 0.360153ZM7.2864 5.56566L3.8635 8.06516V11.0872C3.8635 14.586 4.27066 15.1861 6.64672 15.1861C8.05313 15.1861 8.35255 15.3437 8.35255 16.0839C8.35255 16.5827 8.65197 16.9818 9.02591 16.9818C9.77289 16.9818 9.90981 18.1983 9.27595 19.2002C8.99539 19.6438 9.10357 20.033 9.61936 20.4352C10.3223 20.9833 10.3201 21.0538 9.58704 21.4933C8.71258 22.0176 8.52493 23.9402 9.30154 24.4206C9.59827 24.6037 9.7087 25.4239 9.57313 26.4343C9.33341 28.2219 10.1536 30 11.2175 30C11.5308 30 12.2266 29.5322 12.7635 28.9612C13.6707 27.9952 13.7394 27.4745 13.7394 21.5543V15.1861H15.2208C17.3872 15.1861 17.7796 14.5271 17.7796 10.8879V7.66698L14.4518 5.36634C12.6212 4.10088 11.0307 3.0657 10.9167 3.0657C10.8027 3.0657 9.16911 4.19066 7.2864 5.56566ZM29.0112 5.43772C26.9053 6.50342 26.7541 7.44387 26.8721 18.7401C26.9911 30.0902 27.11 30.5863 29.2141 28.4823C30.2775 27.4188 30.3489 27.0628 30.3489 22.8377V18.3285H36.7974C42.6417 18.3285 43.3568 18.2414 44.4288 17.3979C45.0793 16.8866 45.6117 16.0786 45.6117 15.6023C45.6117 14.7821 45.2166 14.7372 37.9803 14.7372H30.3489V11.5949V8.45256H37.6777C44.7578 8.45256 45.0393 8.41755 45.9825 7.4138C46.5193 6.84234 46.9584 6.03431 46.9584 5.61818C46.9584 4.93494 46.1382 4.86177 38.5414 4.86806C32.6926 4.87255 29.7846 5.04627 29.0112 5.43772ZM50.9985 16.0341C50.9985 26.3625 51.0632 27.2873 51.8559 28.2668C52.6963 29.3055 52.8902 29.3298 61.5074 29.473C69.8759 29.6126 70.3014 29.5789 70.3014 28.7736C70.3014 28.3081 70.015 27.5351 69.6653 27.0556C69.0934 26.2723 68.2894 26.1619 61.6973 25.9599L54.3653 25.7354L54.2437 16.3273C54.1283 7.40123 54.0726 6.86658 53.1555 5.89021C51.0793 3.68025 50.9985 4.06003 50.9985 16.0341ZM74.3416 15.8227C74.3416 21.8515 74.4673 27.1113 74.6204 27.5108C74.8623 28.1415 76.9802 29.5511 77.6859 29.5511C77.8219 29.5511 77.9328 24.4919 77.9328 18.3083V7.065L76.8308 5.96339C76.2247 5.35736 75.4167 4.86132 75.0351 4.86132C74.4287 4.86132 74.3416 6.23542 74.3416 15.8227ZM82.9567 5.61818L82.6463 7.02684L82.5121 18.289C82.3842 29.0483 82.4156 29.5511 83.2196 29.5511C83.6824 29.5511 84.5003 29.0833 85.0372 28.5123C85.9741 27.5144 86.0131 27.1037 86.0131 18.1875V8.90147H92.0958C99.7622 8.90147 101.276 9.52365 101.276 12.6754C101.276 13.8255 99.7667 15.3765 98.1775 15.8599C97.5841 16.0404 95.4289 16.215 93.3873 16.2482C90.1228 16.3012 89.5366 16.4395 88.518 17.3965C87.881 17.9954 87.3598 18.8784 87.3598 19.3587C87.3598 20.1869 87.6467 20.2229 92.8589 20.0496C97.659 19.8898 98.6125 19.7259 100.361 18.7608C101.462 18.1525 102.845 16.9481 103.434 16.0839C104.344 14.7485 104.468 14.1465 104.26 12.0703C103.958 9.04153 102.975 7.64274 100.159 6.23273C98.2215 5.2622 97.2321 5.11271 91.6289 4.94437C85.3676 4.75583 83.1812 4.48905 82.9567 5.61818ZM108.458 17.2179V29.574L109.751 28.906C110.461 28.5384 111.168 27.9108 111.322 27.5108C111.475 27.1113 111.601 22.3475 111.601 16.9247V7.065L110.499 5.96339C109.893 5.35736 109.186 4.86132 108.927 4.86132C108.613 4.86132 108.458 8.92122 108.458 17.2179ZM128.25 5.18274C126.835 5.74207 113.147 14.845 112.807 15.4523C112.606 15.8124 112.504 16.6572 112.582 17.3301C112.699 18.3442 113.681 19.1859 118.334 22.2591C121.42 24.2976 125.309 26.7953 126.976 27.8098C129.906 29.5933 130.043 29.6301 131.128 28.919C131.745 28.5146 132.25 27.9786 132.25 27.7276C132.25 27.4767 128.688 24.9377 124.333 22.0854L116.416 16.8992L123.548 12.1852C127.47 9.59233 130.881 7.27329 131.128 7.03223C131.425 6.74179 131.219 6.30051 130.517 5.72726C129.401 4.81509 129.263 4.78232 128.25 5.18274ZM138.245 5.17197C137.715 5.27566 136.907 5.77395 136.449 6.27897C135.708 7.09777 135.602 8.18142 135.478 16.2164C135.401 21.1768 135.454 25.6955 135.596 26.2584C135.737 26.8213 136.292 27.6913 136.83 28.1918C137.748 29.0474 138.383 29.1022 147.373 29.1022C152.884 29.1022 156.94 28.9276 156.94 28.6901C156.94 27.6774 156.286 26.7746 155.112 26.1677C154.148 25.669 152.056 25.511 146.413 25.511H138.984V21.9197V18.3285H145.657C151.728 18.3285 152.437 18.2445 153.513 17.3979C154.163 16.8866 154.696 16.0786 154.696 15.6023C154.696 14.7812 154.298 14.7372 146.84 14.7372H138.984V11.5949V8.45256H147.084C155.087 8.45256 155.199 8.4391 156.287 7.3505C156.893 6.74448 157.389 5.93645 157.389 5.55488C157.389 4.95021 156.225 4.86896 148.299 4.92238C143.299 4.95604 138.775 5.06827 138.245 5.17197ZM160.294 5.33043C159.999 5.80806 160.549 6.57659 167.628 15.578L171.643 20.6834L171.861 24.0771C172.052 27.0664 172.223 27.5943 173.288 28.511C173.953 29.0829 174.688 29.5511 174.921 29.5511C175.155 29.5511 175.345 27.7721 175.345 25.5801V21.6095L181.613 13.5885C187.994 5.42246 188.243 4.88377 185.644 4.86806C184.049 4.85863 183.645 5.24918 178.699 11.5949C176.293 14.6811 174.111 17.2062 173.85 17.2062C173.59 17.2062 171.406 14.687 168.999 11.6075C166.592 8.52843 164.27 5.75105 163.838 5.43502C162.892 4.74326 160.697 4.67817 160.294 5.33043ZM12.5803 10.0718C13.0786 10.263 13.2905 10.9323 13.2905 12.3163V14.2883H10.8215H8.35255V12.5825C8.35255 11.6443 8.59496 10.6342 8.89124 10.338C9.46629 9.76292 11.41 9.62286 12.5803 10.0718Z" fill="#FFFFFF"></path>
</svg>