<svg xmlns:xlink="http://www.w3.org/1999/xlink" width="188" height="26" viewBox="0 0 188 26" fill="none" xmlns="http://www.w3.org/2000/svg">
<path fill-rule="evenodd" clip-rule="evenodd" d="M64.2241 0.057191C63.3189 0.24869 62.5776 0.98788 62.3587 1.91743C62.2807 2.24885 62.3168 2.86038 62.4337 3.18773C62.5606 3.54294 62.885 4.02352 63.131 4.22058C63.7128 4.68652 64.1614 4.83016 64.9207 4.79363C65.355 4.77273 65.462 4.74821 65.7945 4.59345C66.3866 4.31791 66.7879 3.89476 67.0115 3.31029C67.7117 1.47968 66.1448 -0.349086 64.2241 0.057191ZM142.919 0.0646377C141.857 0.328904 141.148 1.18107 141.081 2.27248C140.994 3.69353 142.047 4.80515 143.479 4.80341C144.223 4.80252 144.786 4.57359 145.257 4.07991C145.709 3.60657 145.916 3.08766 145.917 2.42854C145.919 1.53334 145.51 0.807552 144.737 0.332578C144.253 0.0354021 143.489 -0.0773235 142.919 0.0646377ZM38.4831 0.656556C38.4716 0.685693 38.4684 1.48003 38.4757 2.42169L38.489 4.13386L41.3307 4.14667L44.1724 4.15952V12.8207V21.4819H46.193H48.2136L48.2264 12.8191L48.2391 4.15625L51.0682 4.14503L53.8973 4.13386V2.37175V0.609649L46.2005 0.606622C40.7903 0.604488 38.4976 0.619328 38.4831 0.656556ZM118.815 0.625781C118.801 0.639679 118.789 2.15499 118.789 3.99324C118.789 5.83144 118.774 7.33543 118.757 7.33543C118.739 7.33543 118.528 7.21412 118.289 7.06585C116.979 6.2534 115.838 5.90957 114.293 5.86137C113.159 5.82603 112.344 5.93711 111.445 6.24938C110.183 6.68832 109.333 7.19804 108.44 8.05075C107.465 8.98248 106.864 9.88011 106.425 11.0565C106.075 11.9962 105.959 12.6686 105.958 13.7634C105.957 14.8674 106.092 15.6471 106.448 16.5927C106.636 17.0912 107.27 18.2683 107.424 18.4044C107.44 18.4181 107.557 18.5633 107.686 18.7271C108.841 20.2013 110.629 21.2587 112.59 21.6275C113.34 21.7685 114.552 21.7698 115.381 21.6304C116.407 21.4582 117.425 21.0703 118.263 20.5328C118.48 20.3939 118.686 20.269 118.723 20.2553C118.775 20.2356 118.789 20.3611 118.789 20.8561V21.4819H120.784H122.78V11.0445V0.607216L120.81 0.603889C119.727 0.602053 118.829 0.611883 118.815 0.625781ZM14.4167 3.1716C13.116 3.2201 12.1987 3.34598 10.9584 3.64603C10.3354 3.79678 9.0436 4.21913 8.61606 4.41182C8.44045 4.491 8.28718 4.55577 8.27536 4.55577C8.1479 4.55577 6.38034 5.47415 6.34205 5.56027C6.33275 5.58112 6.30219 5.59815 6.2741 5.59815C6.24601 5.59815 6.07056 5.69866 5.88419 5.82151L5.54536 6.04488H2.77833C0.395401 6.04488 0.0135779 6.0548 0.0276727 6.1164C0.0366651 6.15571 0.180392 6.32895 0.347104 6.50134C0.513817 6.67372 0.866086 7.04918 1.13 7.33568C1.39386 7.62218 1.66681 7.91246 1.73663 7.98071C1.8064 8.04896 1.99367 8.24781 2.15276 8.42263L2.44208 8.74045L2.13891 9.04309C1.52789 9.65307 0.902056 10.587 0.570499 11.3836C-0.211232 13.2621 -0.188296 15.4823 0.631375 17.2708C1.14182 18.3846 1.81241 19.2691 2.69781 19.9964C3.03153 20.2705 3.63771 20.6877 3.70217 20.6877C3.72779 20.6877 3.75628 20.7059 3.76558 20.7281C3.78533 20.7756 4.52604 21.1339 4.90215 21.278C5.36945 21.4569 6.40519 21.6819 6.9415 21.721C9.01526 21.872 10.8602 21.3091 12.4706 20.034L12.7726 19.7949L12.8962 19.9311C12.9642 20.006 13.1693 20.2244 13.352 20.4164C13.5346 20.6084 13.8774 20.9738 14.1135 21.2285C14.3497 21.4831 14.6915 21.8474 14.8731 22.038L15.2033 22.3847L15.4973 22.0698C15.659 21.8966 15.8756 21.6656 15.9786 21.5564C16.0817 21.4472 16.4146 21.0913 16.7185 20.7656C17.0224 20.4399 17.3533 20.0865 17.454 19.9804L17.637 19.7873L17.7824 19.9201C17.8623 19.9932 18.1097 20.1789 18.3322 20.3331C19.253 20.9711 19.9229 21.2768 20.9452 21.5258C22.7064 21.9549 24.5304 21.7653 26.1622 20.9837C26.5902 20.7787 27.1484 20.4457 27.2787 20.3177C27.3216 20.2755 27.3722 20.241 27.391 20.241C27.4238 20.241 27.7072 20.0018 28.0315 19.7007C29.1327 18.6777 29.8985 17.3482 30.2361 15.873C30.3425 15.4082 30.3553 15.2309 30.3543 14.2349C30.3532 13.1755 30.3458 13.0887 30.2092 12.5473C29.969 11.5955 29.6287 10.8314 29.1077 10.074C28.7916 9.61465 28.7638 9.58085 28.3271 9.12752L27.9659 8.75256L28.0937 8.60241C28.242 8.42804 28.7633 7.86724 29.11 7.50916C29.2421 7.37266 29.4493 7.14929 29.5704 7.01279C29.6915 6.87629 29.9251 6.62558 30.0894 6.45567C30.2538 6.28576 30.3751 6.12578 30.359 6.10022C30.3415 6.07232 29.2323 6.05118 27.5893 6.04746L24.8488 6.04125L24.571 5.85104C23.2048 4.91579 20.9023 3.96028 19.0585 3.56348C17.3815 3.20257 16.218 3.10434 14.4167 3.1716ZM16.9322 5.72244C17.6453 5.8098 18.5089 5.96536 18.9128 6.07923C19.9284 6.36548 20.7948 6.67928 20.753 6.74575C20.7379 6.76977 20.6994 6.78943 20.6676 6.78943C20.5599 6.78943 19.5473 7.30327 19.1149 7.57736C17.7238 8.45921 16.6362 9.61937 15.968 10.9341C15.5483 11.7601 15.2421 12.776 15.2202 13.4159C15.2173 13.4978 15.1832 13.3527 15.1442 13.0933C15.1052 12.8339 15.0178 12.4431 14.9499 12.2247C14.8819 12.0063 14.8109 11.7717 14.7918 11.7035C14.7209 11.4489 14.17 10.4238 13.8941 10.0329C13.5007 9.47572 12.8318 8.74869 12.3331 8.33616C11.8777 7.95952 10.9496 7.33543 10.8449 7.33543C10.8088 7.33543 10.7793 7.31841 10.7793 7.29761C10.7793 7.26405 9.98088 6.87277 9.67761 6.75771C9.57855 6.72014 9.65821 6.67899 10.2081 6.48382C11.5476 6.00839 12.6803 5.77803 14.4167 5.62783C14.8426 5.59095 16.3094 5.64615 16.9322 5.72244ZM76.6059 5.92247C75.5909 6.07406 74.4152 6.5206 73.5518 7.08233C73.3348 7.22355 73.1431 7.32526 73.1258 7.30833C73.1086 7.2914 73.0926 7.01696 73.0901 6.69844L73.0859 6.11933L71.082 6.10638L69.0782 6.09337V16.0467V26L71.0747 25.987L73.0713 25.974L73.071 23.1075C73.0707 20.7818 73.083 20.241 73.1366 20.241C73.1728 20.241 73.326 20.3316 73.4769 20.4423C73.7932 20.6743 74.9195 21.2292 75.3743 21.3769C76.1537 21.6303 76.6724 21.6994 77.818 21.7024C78.6731 21.7047 79.0009 21.6862 79.3588 21.6156C80.4774 21.395 81.5213 20.9608 82.4646 20.3238C83.7376 19.4642 84.8321 18.1025 85.3773 16.6999C86.328 14.2544 86.0551 11.6454 84.6165 9.42405C84.5383 9.30338 84.4543 9.18053 84.4298 9.15105C84.4053 9.12161 84.2779 8.96352 84.1466 8.79972C83.8783 8.46497 83.1955 7.7906 82.9231 7.59131C82.8244 7.51914 82.7323 7.44607 82.7184 7.4289C82.7045 7.41177 82.4999 7.27438 82.2637 7.12353C81.4359 6.59495 80.4222 6.18063 79.4851 5.98789C78.8403 5.85531 77.2913 5.82007 76.6059 5.92247ZM94.2301 5.91959C91.2807 6.39209 88.8553 8.36093 87.8537 11.0955C86.9942 13.442 87.3142 16.0858 88.7083 18.1571C89.3414 19.0977 90.1238 19.8677 91.0504 20.462C91.2439 20.5862 91.4126 20.6877 91.4254 20.6877C91.438 20.6877 91.5878 20.7652 91.7582 20.8598C92.1907 21.1 93.0486 21.4085 93.7063 21.5602C94.3876 21.7175 95.8265 21.7807 96.5174 21.6838C97.7135 21.516 98.9305 21.0654 99.8341 20.4557C100.009 20.3376 100.163 20.241 100.175 20.241C100.188 20.241 100.198 20.5202 100.198 20.8615V21.4819H102.219H104.239V13.7882V6.09451H102.219H100.198V6.71497C100.198 7.05623 100.185 7.33543 100.169 7.33543C100.154 7.33543 100.068 7.28182 99.9799 7.2163C99.8914 7.15078 99.7395 7.053 99.6422 6.99899C99.545 6.94504 99.3233 6.82115 99.1496 6.72366C98.6849 6.46307 97.828 6.15586 97.1668 6.01286C96.4336 5.85432 94.9348 5.80672 94.2301 5.91959ZM152.207 5.92113C149.901 6.24005 148.168 7.53661 147.683 9.30443C147.537 9.83817 147.535 10.671 147.68 11.2689C147.952 12.3949 148.718 13.3052 149.914 13.9247C150.391 14.1714 150.709 14.29 151.399 14.4787C151.705 14.5622 152.284 14.7213 152.687 14.8324C153.09 14.9434 153.545 15.0675 153.698 15.108C154.775 15.3941 155.6 15.9052 155.773 16.3946C155.811 16.5036 155.842 16.7602 155.842 16.965C155.842 17.2749 155.819 17.3788 155.706 17.5854C155.516 17.9308 155.48 17.9685 155.125 18.1939C154.291 18.7233 152.924 18.7113 152.118 18.1677C151.797 17.9511 151.786 17.94 151.597 17.6599C151.351 17.294 151.265 17.0613 151.235 16.6804L151.208 16.3197H149.245H147.282V16.6617C147.282 18.1734 148.203 19.788 149.56 20.6527C150.083 20.9861 150.302 21.0959 150.832 21.2903C151.709 21.6116 152.447 21.7301 153.568 21.7301C155.723 21.7301 157.423 21.0297 158.626 19.6454C159.228 18.9524 159.628 17.9373 159.691 16.9401C159.803 15.1712 159.018 13.8384 157.366 12.9946C156.841 12.7262 156.41 12.5734 155.466 12.3204C155.118 12.2273 154.425 12.0414 153.925 11.9073C152.796 11.6044 152.385 11.454 152.03 11.2131C151.61 10.9279 151.457 10.6839 151.433 10.261C151.409 9.84159 151.471 9.66578 151.745 9.3835C152.059 9.06056 152.579 8.86583 153.21 8.83506C153.978 8.79758 154.485 8.94188 154.927 9.32428C155.233 9.58884 155.399 9.87128 155.48 10.2675L155.546 10.5857L157.362 10.5841L159.179 10.5825L159.194 10.296C159.224 9.74232 158.933 8.7066 158.621 8.25525C158.553 8.15643 158.497 8.05422 158.497 8.02816C158.497 8.00205 158.479 7.98071 158.458 7.98071C158.437 7.98071 158.386 7.92616 158.344 7.85955C158.225 7.66587 157.738 7.18886 157.437 6.97021C156.38 6.20342 155.074 5.83938 153.424 5.85229C153.005 5.85556 152.457 5.88654 152.207 5.92113ZM167.786 5.92272C163.712 6.54631 160.757 10.0779 160.936 14.1062C160.952 14.4637 160.99 14.879 161.02 15.0291C161.05 15.1793 161.1 15.425 161.13 15.5751C161.332 16.5773 162.022 17.9641 162.735 18.8011C162.863 18.951 163.013 19.1272 163.069 19.1926C163.281 19.4421 164.131 20.153 164.526 20.4106C165.238 20.8751 166.103 21.2618 166.932 21.4851C168.256 21.8419 170.137 21.808 171.369 21.4052C172.24 21.1204 172.688 20.9178 173.324 20.522C174.251 19.945 175.048 19.1915 175.67 18.3039C176.393 17.2725 176.752 16.3995 176.991 15.0972C177.083 14.5903 177.095 14.383 177.073 13.6145C177.034 12.2177 176.829 11.3879 176.232 10.2144C175.821 9.40414 175.438 8.88772 174.741 8.2001C174.013 7.4831 173.434 7.05757 172.667 6.67874C172.337 6.51543 171.383 6.16515 171.008 6.06925C170.142 5.84842 168.7 5.78279 167.786 5.92272ZM51.9523 13.7882V21.4819H53.973H55.9938V16.6739C55.9938 13.6112 56.0125 11.7689 56.0454 11.5988C56.186 10.8701 56.73 10.2332 57.4267 9.98162C57.8733 9.82035 58.0355 9.80392 59.4796 9.77384L60.9699 9.74282V7.93107V6.11933L59.6564 6.11938C58.4073 6.11948 58.3268 6.12514 58.0146 6.23543C57.6314 6.37079 57.1611 6.64082 56.8911 6.88051C56.6252 7.11649 56.2573 7.7162 56.1167 8.14268L55.9983 8.5019L55.9961 7.2982L55.9938 6.09451H53.973H51.9523V13.7882ZM62.7474 6.12668C62.7295 6.1444 62.7141 9.60656 62.7133 13.8204L62.7119 21.4819H64.7331H66.7544V13.7882V6.09451H64.7673C63.6744 6.09451 62.7655 6.10901 62.7474 6.12668ZM124.208 6.158C124.222 6.19289 124.42 6.75687 124.648 7.41133C124.876 8.06574 125.107 8.72402 125.162 8.87417C125.216 9.02432 125.292 9.24769 125.329 9.37054C125.367 9.49339 125.447 9.72793 125.507 9.89173C125.64 10.2523 126.722 13.3463 126.921 13.9371C127.154 14.626 127.427 15.3943 127.477 15.5007C127.503 15.5553 127.546 15.6781 127.572 15.7737C127.599 15.8692 127.806 16.4723 128.033 17.1139C128.259 17.7554 128.468 18.3585 128.496 18.4541C128.525 18.5496 128.66 18.9307 128.796 19.3009C128.933 19.6712 129.044 19.9878 129.044 20.0046C129.044 20.0214 129.161 20.3609 129.303 20.759L129.561 21.4829L131.986 21.47L134.411 21.4571L134.55 21.06C135.005 19.7607 136.442 15.6734 136.784 14.7065C137.005 14.0786 137.311 13.2075 137.464 12.7707C137.786 11.8455 138.192 10.6857 138.549 9.66836C138.891 8.69359 139.297 7.53398 139.547 6.81658C139.661 6.49027 139.754 6.19428 139.754 6.15889C139.754 6.10717 139.343 6.09451 137.667 6.09451H135.58L135.287 7.00038C135.126 7.49864 134.938 8.08495 134.869 8.30335C134.801 8.52175 134.703 8.82329 134.652 8.97345C134.601 9.1236 134.486 9.48098 134.398 9.76763C134.309 10.0543 134.195 10.4117 134.144 10.5618C134.094 10.712 133.924 11.2369 133.767 11.7283C133.611 12.2197 133.338 13.0685 133.162 13.6145C132.986 14.1605 132.657 15.1866 132.432 15.8947C132.207 16.6029 132.014 17.1906 132.004 17.2009C131.993 17.2111 131.938 17.0785 131.882 16.9061C131.745 16.49 131.286 15.054 130.964 14.0364C130.821 13.5859 130.662 13.0945 130.611 12.9444C130.56 12.7942 130.445 12.4369 130.355 12.1502C130.266 11.8635 130.152 11.5062 130.102 11.356C130.013 11.0845 129.168 8.44179 128.677 6.90111L128.42 6.09451H126.302C124.603 6.09451 124.189 6.10707 124.208 6.158ZM141.506 6.12762C141.487 6.14579 141.472 9.60795 141.472 13.8213V21.4819H143.493H145.514V13.7882V6.09451H143.526C142.434 6.09451 141.524 6.1094 141.506 6.12762ZM178.957 13.7882V21.4819H180.978H182.999L182.999 16.754C182.999 13.694 183.018 11.9123 183.052 11.7035C183.172 10.9738 183.635 10.3587 184.291 10.0565C184.807 9.81866 185.231 9.76763 186.691 9.76763H188V7.92676V6.08588L186.699 6.10439C185.435 6.12241 185.387 6.12673 184.994 6.25985C184.061 6.57604 183.424 7.25308 183.096 8.27625L183.008 8.55153L183.003 7.32302L182.999 6.09451H180.978H178.957V13.7882ZM8.20741 9.27285C8.66158 9.32755 8.94009 9.39188 9.19556 9.50109C9.28311 9.53846 9.37546 9.56909 9.40077 9.56909C9.5062 9.56909 10.298 9.96186 10.4263 10.0779C10.4792 10.1257 10.5436 10.1647 10.5694 10.1647C10.6737 10.1647 11.5943 11.1077 11.8292 11.4553C12.1357 11.9086 12.2421 12.1145 12.419 12.5969C12.7695 13.5526 12.7954 14.8395 12.4827 15.7737C11.912 17.4794 10.5355 18.7295 8.73326 19.1789C8.23211 19.3039 7.06123 19.3059 6.51043 19.1827C5.22128 18.8945 4.05358 18.1024 3.34814 17.0375C2.98278 16.4861 2.7705 16.0063 2.63516 15.4262C2.43627 14.5735 2.47178 13.5161 2.72473 12.7618C2.85472 12.3741 3.24912 11.6037 3.46372 11.3183C4.14149 10.4168 5.11908 9.74282 6.18609 9.44117C6.96313 9.22153 7.4473 9.18123 8.20741 9.27285ZM23.6182 9.29887C26.2045 9.77181 28.011 11.9535 27.8903 14.4583C27.8572 15.1462 27.7536 15.6163 27.5148 16.1627C27.091 17.1323 26.4675 17.8852 25.6319 18.4368C24.5135 19.1749 23.1104 19.458 21.8451 19.2007C21.2083 19.0712 20.693 18.8809 20.2373 18.6068C19.7134 18.2918 19.6976 18.282 19.6706 18.2554C19.6567 18.2417 19.5612 18.1596 19.4583 18.0729C18.8528 17.5625 18.3453 16.8512 18.033 16.0752C17.6555 15.1374 17.5783 14.097 17.8172 13.1678C17.9522 12.6426 18.0448 12.356 18.1057 12.2743C18.1261 12.247 18.1594 12.1688 18.1797 12.1006C18.2816 11.7593 18.9359 10.9251 19.4859 10.4354C19.8455 10.1152 20.5535 9.71507 21.0983 9.52417C21.9326 9.2318 22.8184 9.15264 23.6182 9.29887ZM78.6117 9.62012C79.9994 9.96792 81.1085 10.9641 81.6222 12.3239C81.9608 13.2207 81.9539 14.3956 81.6044 15.3186C81.327 16.0513 80.7325 16.8269 80.1419 17.2265C80.0169 17.3111 79.9032 17.3944 79.8893 17.4115C79.8108 17.5086 78.9884 17.8677 78.6235 17.9642C78.0678 18.1112 76.9641 18.125 76.454 17.9914C76.0626 17.8888 75.5006 17.6704 75.3891 17.5774C75.3453 17.5409 75.2925 17.511 75.2719 17.511C75.1371 17.511 74.3023 16.7923 74.0027 16.4183C73.2158 15.436 72.9196 13.9904 73.246 12.7261C73.4914 11.7757 74.063 10.9276 74.8627 10.3279C75.3488 9.9632 76.1856 9.61143 76.7824 9.52094C77.2379 9.45185 78.1341 9.50044 78.6117 9.62012ZM96.8485 9.58904C98.4188 9.98519 99.6513 11.1546 100.053 12.6296C100.263 13.3989 100.22 14.6228 99.9626 15.2525C99.2319 17.0371 97.6768 18.1024 95.7976 18.1058C93.8083 18.1093 92.0212 16.7171 91.554 14.7997C91.415 14.2293 91.406 13.3772 91.5334 12.8451C91.6234 12.4693 91.971 11.6124 92.0552 11.5588C92.0803 11.5428 92.1358 11.4627 92.1786 11.3808C92.2963 11.1552 92.8373 10.5964 93.1902 10.3357C94.2311 9.5669 95.6294 9.28149 96.8485 9.58904ZM115.288 9.56532C116.078 9.72549 117.119 10.2949 117.559 10.807C117.981 11.2977 118.107 11.4762 118.281 11.8276C118.906 13.089 118.926 14.4229 118.338 15.6496C117.583 17.2242 115.929 18.1875 114.145 18.0909C112.258 17.9888 110.783 16.8516 110.168 15.0247C110.038 14.6395 110.027 14.5458 110.026 13.813C110.024 13.048 110.03 13 110.191 12.5043C110.525 11.4799 111.265 10.5641 112.171 10.0553C113.114 9.52556 114.228 9.35044 115.288 9.56532ZM170.03 9.59207C172.015 10.0775 173.398 11.7795 173.398 13.7386C173.399 15.7966 172.075 17.4699 170.043 17.9803C168.873 18.274 167.584 18.0452 166.544 17.3595C165.165 16.4496 164.419 14.7656 164.681 13.1516C165.092 10.6265 167.556 8.98685 170.03 9.59207ZM7.06613 11.6369C6.90235 11.6713 6.36104 11.863 6.33361 11.8963C6.31972 11.9132 6.2405 11.9604 6.1576 12.0014C5.87762 12.1395 5.35809 12.7015 5.18521 13.0532C4.97035 13.4903 4.9218 13.7168 4.92029 14.2888C4.91832 15.0537 5.13944 15.5936 5.67231 16.1249C6.00892 16.4604 6.25399 16.6217 6.66198 16.7759C6.92296 16.8746 7.05638 16.8905 7.62184 16.8901C8.22797 16.8897 8.30456 16.8789 8.61545 16.7499C9.43285 16.4109 9.9922 15.7797 10.2513 14.9041C10.4197 14.3347 10.2723 13.4481 9.90742 12.8363C9.83432 12.7138 9.63033 12.4813 9.45407 12.3198C8.91245 11.8234 8.32219 11.5997 7.58148 11.61C7.35364 11.6131 7.12171 11.6252 7.06613 11.6369ZM22.1208 11.674C21.4107 11.8466 20.7141 12.3956 20.3847 13.0422C19.7648 14.2591 20.1334 15.7057 21.257 16.4652C21.3722 16.5431 21.6136 16.6704 21.7936 16.7482C22.0959 16.8788 22.1689 16.8896 22.7523 16.8901C23.4839 16.8906 23.7421 16.8251 24.2485 16.5109C25.0584 16.0083 25.4803 15.224 25.4803 14.2208C25.4803 12.7549 24.2982 11.5944 22.8192 11.6084C22.574 11.6107 22.2597 11.6403 22.1208 11.674Z" fill="#FFFFFF"></path>
</svg>