<svg xmlns:xlink="http://www.w3.org/1999/xlink" width="84" height="46" viewBox="0 0 84 46" fill="none" xmlns="http://www.w3.org/2000/svg">
<path fill-rule="evenodd" clip-rule="evenodd" d="M0.614268 1.51824C0.653462 1.46536 1.2477 1.28505 2.40754 0.974071C3.36161 0.718277 4.19871 0.50721 4.26781 0.505054C4.32016 0.503397 4.3625 0.493823 4.39674 0.506367C4.55137 0.563019 4.54072 1.0708 4.54072 4.79649V8.9446L4.85718 8.62434C5.46595 8.00834 6.19043 7.59085 7.04895 7.36141C7.48018 7.24617 7.59111 7.23604 8.432 7.23506C9.27093 7.23412 9.38321 7.24406 9.79508 7.35555C11.1744 7.72892 12.2179 8.47647 12.9831 9.6394C13.2561 10.0544 13.4606 10.53 13.6284 11.14L13.7518 11.5889L13.7661 16.4413L13.7804 21.2937L13.6796 21.3757C13.5875 21.4506 13.4248 21.4578 11.8076 21.4578C10.1893 21.4578 10.028 21.4507 9.93863 21.3757C9.84112 21.2939 9.84083 21.2832 9.82607 17.1914C9.81228 13.3714 9.80539 13.0714 9.72583 12.8313C9.26549 11.4418 7.98239 10.6831 6.59152 10.9779C5.90159 11.124 5.19951 11.6495 4.8749 12.2626C4.81872 12.3686 4.77286 12.4484 4.73533 12.5319C4.55758 12.9273 4.56685 13.4069 4.55384 17.168L4.55384 17.1683C4.53959 21.2927 4.53959 21.2937 4.44118 21.3757C4.35126 21.4507 4.18886 21.4578 2.55344 21.4578C1.00977 21.4578 0.749759 21.4477 0.659885 21.3848L0.555664 21.3118V11.4545C0.555664 3.64218 0.567807 1.58088 0.614268 1.51824ZM17.2422 9.39303C18.4123 8.18805 19.8076 7.49362 21.5361 7.25616C22.0789 7.18156 23.6649 7.23154 24.1918 7.33979C26.1295 7.73802 27.7335 8.82233 28.8515 10.4898C29.3449 11.2257 29.6601 11.987 29.8675 12.9436C30.0081 13.5922 30.0202 15.2973 29.8888 15.9473C29.5948 17.402 28.9382 18.6341 27.914 19.6528C27.3285 20.2352 26.84 20.6003 26.185 20.9451C25.1048 21.5137 23.9535 21.7843 22.6141 21.7842C20.4588 21.784 18.7221 21.0999 17.3184 19.6983C16.3074 18.6888 15.6687 17.5178 15.3668 16.1206C15.2258 15.468 15.19 14.0361 15.2965 13.3111C15.5236 11.7658 16.1362 10.5322 17.2422 9.39303ZM35.7337 8.46564C36.366 7.848 37.1701 7.43942 38.0777 7.27477C38.847 7.13515 39.9945 7.21546 40.7489 7.46178C41.6416 7.75321 42.5187 8.3828 43.0367 9.10419L43.1947 9.32421L43.3124 9.16889C44.315 7.84585 45.385 7.29169 47.0758 7.21968C48.7479 7.14846 50.0329 7.61879 51.1743 8.71979C51.9682 9.48572 52.3839 10.2332 52.6271 11.3324C52.6956 11.6421 52.7067 12.2335 52.7231 16.4433L52.7416 21.2041L52.6418 21.3309L52.5421 21.4578H50.717C48.9545 21.4578 48.8888 21.4545 48.7982 21.364C48.7059 21.2716 48.7045 21.2077 48.7045 17.1309C48.7045 13.3027 48.7112 12.8161 48.5363 12.4071C48.5036 12.3306 48.4645 12.2569 48.4179 12.1645C48.2165 11.7655 47.7643 11.3219 47.3719 11.1383C46.4917 10.7264 45.4733 10.9044 44.7897 11.5895C44.451 11.929 44.2796 12.2342 44.1558 12.7181C44.0669 13.0658 44.0631 13.2492 44.0631 17.1755C44.0631 21.2077 44.0616 21.2717 43.9693 21.364C43.8788 21.4545 43.813 21.4578 42.0757 21.4578C40.4304 21.4578 40.2675 21.4507 40.1775 21.3757L40.0791 21.2937L40.066 17.0976C40.0538 13.1796 40.0472 12.8845 39.9672 12.6438C39.5708 11.4508 38.5684 10.7769 37.4333 10.9405C36.6003 11.0605 35.906 11.6265 35.5616 12.4665C35.4606 12.7126 35.4599 12.7389 35.4366 16.9963L35.4131 21.2786L35.3025 21.3682C35.1978 21.4529 35.0941 21.4578 33.392 21.4578C31.6547 21.4578 31.589 21.4545 31.4984 21.364C31.4055 21.2711 31.4047 21.2077 31.4047 14.4956C31.4047 7.78354 31.4055 7.7202 31.4984 7.62728C31.589 7.53675 31.6547 7.53351 33.392 7.53351C34.8071 7.53351 35.2346 7.50764 35.366 7.69237C35.4384 7.7943 35.4207 7.96035 35.429 8.23024L35.4447 8.74788L35.7337 8.46564ZM56.1823 9.38019C57.383 8.16742 58.6538 7.5179 60.2934 7.27903C60.8873 7.19249 62.027 7.1915 62.6284 7.27697C64.2492 7.50731 65.4792 8.13146 66.6876 9.33663C67.9984 10.644 68.619 11.9997 68.7726 13.891C68.819 14.4633 68.7796 15.2852 68.684 15.738L68.6493 15.9021L63.5058 15.914C59.1447 15.9242 58.3624 15.9359 58.3624 15.9913C58.3624 16.0273 58.4603 16.254 58.5801 16.4951C58.7626 16.8626 58.8668 17.002 59.2247 17.3566C59.5642 17.693 59.7333 17.8202 60.0501 17.9777C60.5759 18.239 60.8997 18.3192 61.5531 18.3501C62.6033 18.3996 63.4307 18.1149 64.1598 17.4533C64.3224 17.3058 64.4925 17.1914 64.5494 17.1914C64.7302 17.1914 67.9944 18.0929 68.0789 18.1662C68.206 18.2765 68.1799 18.3738 67.9173 18.7698C67.62 19.2182 66.9053 19.9356 66.4012 20.2917C65.0015 21.2805 63.7096 21.7141 61.9876 21.7729C59.8297 21.8467 58.0316 21.2434 56.5449 19.9465C55.6206 19.1403 54.8616 18.0074 54.497 16.8897C54.2219 16.0468 54.1693 15.6626 54.1693 14.4956C54.1693 13.5488 54.1824 13.3573 54.2761 12.9251C54.5875 11.4897 55.1745 10.3982 56.1823 9.38019ZM64.5775 12.623C64.1548 11.6673 63.2126 10.9065 62.197 10.7009C61.7598 10.6125 61.1645 10.6122 60.7583 10.7003C60.5933 10.7361 60.2769 10.855 60.055 10.9645C59.3676 11.304 58.6861 12.066 58.436 12.7749L58.3665 12.9719H61.529C63.5442 12.9719 64.6916 12.9554 64.6916 12.9264C64.6916 12.9013 64.6402 12.7648 64.5775 12.623ZM24.823 12.1046C24.3157 11.6031 23.9867 11.4004 23.4554 11.262C23.112 11.1726 22.4125 11.1361 22.0735 11.1901C21.4323 11.2921 20.8176 11.611 20.3444 12.0873C19.3154 13.123 19.0696 14.7021 19.7285 16.0428C20.3351 17.2768 21.6048 17.97 22.9651 17.8099C23.9057 17.6992 24.5792 17.3182 25.1533 16.5722C25.6349 15.9463 25.8379 15.3319 25.8395 14.4956C25.8406 13.8768 25.7607 13.5273 25.4909 12.9719C25.3273 12.6353 25.2237 12.5007 24.823 12.1046ZM9.84923 29.2224C9.83727 23.6155 9.84365 22.9337 9.90858 22.8346L9.9813 22.7236H11.8288C13.4457 22.7236 13.6854 22.7328 13.7499 22.7972C13.8132 22.8606 13.8235 23.0482 13.8235 24.1334V25.3959H15.2899C16.5413 25.3959 16.7716 25.4066 16.8605 25.4689C16.9647 25.5419 16.9647 25.542 16.9647 27.1306C16.9647 28.7192 16.9647 28.7193 16.8605 28.7923C16.7716 28.8546 16.5411 28.8653 15.2882 28.8653H13.82L13.8335 31.6431L13.847 34.4209L13.9549 34.6553C14.1576 35.0957 14.5326 35.3844 15.016 35.4721C15.1689 35.4999 15.6369 35.5226 16.0557 35.5226C16.6856 35.5226 16.8301 35.5354 16.891 35.5963C16.9553 35.6606 16.9647 35.8871 16.9647 37.3706C16.9647 38.9919 16.9605 39.0751 16.8741 39.1532C16.7908 39.2286 16.662 39.2336 15.2683 39.2151C13.8157 39.1959 13.7343 39.19 13.2948 39.0725C11.6146 38.623 10.4107 37.486 9.98631 35.9479L9.86254 35.4992L9.84923 29.2224ZM19.8714 27.2225C21.013 26.0628 22.3123 25.4 23.9503 25.1416C24.5957 25.0398 26.2022 25.073 26.8101 25.2008C28.2192 25.4968 29.3367 26.0784 30.3436 27.0396C31.4493 28.0954 32.0922 29.2073 32.4157 30.6234C32.5232 31.0941 32.5477 31.3282 32.5659 32.057C32.5899 33.0172 32.5443 33.4994 32.361 34.2263C31.7882 36.4977 29.9804 38.445 27.7637 39.1784C26.4749 39.6049 24.892 39.6918 23.5166 39.4115C20.878 38.8738 18.7481 36.8798 18.0912 34.3322C17.8994 33.5883 17.8437 33.1179 17.8464 32.2643C17.8528 30.2547 18.5187 28.5967 19.8714 27.2225ZM43.688 25.2093C43.8814 25.1784 44.0713 25.1469 44.1099 25.1393C44.1486 25.1317 44.4756 25.1232 44.8366 25.1203C46.1335 25.1099 47.2216 25.4075 48.2486 26.0534L48.681 26.3253L48.7065 25.9491C48.7266 25.6529 48.7509 25.5591 48.8209 25.5079C48.8932 25.4551 49.2465 25.4428 50.6955 25.4428C52.2357 25.4428 52.4954 25.4528 52.5853 25.5158L52.6895 25.5888V32.507C52.6895 38.5142 52.68 39.4898 52.6168 39.9148C52.3917 41.4313 51.7012 42.6926 50.535 43.7176C50.0569 44.1379 49.3557 44.6083 48.8795 44.8283C46.8365 45.7723 44.2088 45.7175 42.1318 44.6877C40.7941 44.0245 39.7479 43.0372 39.159 41.8826C39.0268 41.6234 38.9257 41.4716 38.9566 41.3548C39.01 41.1529 39.4575 41.0552 40.8198 40.687C41.8797 40.4006 42.6579 40.2129 42.7206 40.2286C42.7792 40.2433 42.9077 40.3728 43.0073 40.5175C43.5962 41.3726 44.8026 41.8505 46.0232 41.7122C46.8112 41.623 47.3775 41.3524 47.9355 40.7987C48.5361 40.2026 48.7232 39.7094 48.696 38.7939L48.681 38.291L48.3763 38.5044C47.7677 38.9308 46.9148 39.2817 46.0876 39.4461C45.4699 39.569 44.1937 39.5563 43.5598 39.4211C41.9015 39.0673 40.5642 38.1424 39.5825 36.6703C38.7404 35.4074 38.3433 34.0082 38.3433 32.3031C38.3433 30.5004 38.833 28.932 39.7933 27.6586C40.1515 27.1837 40.9006 26.4606 41.3442 26.1614C42.0535 25.6832 42.9155 25.333 43.688 25.2093ZM54.5232 29.8644C55.4141 27.3308 57.6624 25.5396 60.4252 25.1622C60.5928 25.1393 61.173 25.1281 61.7145 25.1374C62.4962 25.1508 62.7956 25.1749 63.1679 25.2547C64.1733 25.4702 65.0879 25.8597 65.8694 26.4054C66.4026 26.7778 67.3671 27.7526 67.7231 28.2792C68.2452 29.0517 68.5796 29.8349 68.78 30.7552C68.9236 31.4143 68.9356 33.169 68.8008 33.788C68.4623 35.3424 67.8234 36.4893 66.6951 37.5678C65.2546 38.9446 63.3048 39.6375 61.1519 39.5375C59.1106 39.4427 57.4829 38.7461 56.1589 37.4006C55.1842 36.4101 54.5872 35.3007 54.2718 33.8939C54.1822 33.4942 54.1692 33.2972 54.1692 32.3346C54.1692 31.113 54.2277 30.7046 54.5232 29.8644ZM27.4241 29.9416C26.9164 29.4366 26.5966 29.2429 26.0321 29.0985C25.6905 29.0112 24.9569 28.9801 24.6066 29.0381C23.5776 29.2086 22.6073 30.0213 22.2095 31.046C21.5747 32.6807 22.2813 34.5943 23.7862 35.3155C24.2717 35.5482 24.5955 35.6164 25.2152 35.6164C26.1947 35.6164 26.7605 35.3849 27.447 34.7032C27.8088 34.344 27.9058 34.2132 28.0906 33.8349C28.3742 33.2545 28.4729 32.7686 28.4378 32.1256C28.3881 31.216 28.1159 30.6297 27.4241 29.9416ZM47.2303 29.5294C46.8053 29.2452 46.4904 29.1227 46.0131 29.0564C45.6077 29 45.468 29 45.0945 29.0561C44.1072 29.2047 43.2325 29.8876 42.7983 30.849C42.5729 31.3481 42.5011 31.7889 42.527 32.5155C42.5473 33.0846 42.566 33.1985 42.6965 33.5496C42.8887 34.0666 43.1589 34.4735 43.5509 34.8364C44.1249 35.3679 44.7727 35.6164 45.5844 35.6164C46.0944 35.6164 46.4481 35.5339 46.9229 35.3043C47.1991 35.1708 47.3653 35.0426 47.6975 34.7073C48.1969 34.2031 48.4205 33.8151 48.5685 33.196C48.7067 32.6181 48.6777 31.7803 48.5005 31.2319C48.273 30.5277 47.8249 29.9271 47.2303 29.5294ZM63.8242 30.0147C63.2712 29.4401 62.7387 29.1603 61.9958 29.0545C60.5559 28.8494 59.2407 29.5515 58.5987 30.868C58.3831 31.3103 58.3004 31.7155 58.2993 32.3346C58.2981 32.9782 58.3753 33.3175 58.6509 33.8796C58.8058 34.1955 58.9271 34.3579 59.2484 34.6794C59.9077 35.3391 60.5822 35.6164 61.527 35.6164C62.4457 35.6164 63.1429 35.3363 63.7603 34.7191C64.5375 33.9422 64.8842 32.9507 64.7449 31.9039C64.6425 31.1351 64.3759 30.5879 63.8242 30.0147ZM72.5443 35.5218C71.4438 35.5218 70.5518 36.4139 70.5518 37.5143C70.5518 38.6147 71.4438 39.5068 72.5443 39.5068H81.452C82.5525 39.5068 83.4446 38.6147 83.4446 37.5143C83.4446 36.4139 82.5525 35.5218 81.452 35.5218H72.5443Z" fill="#FFFFFF"></path>
</svg>