<svg xmlns:xlink="http://www.w3.org/1999/xlink" width="176" height="28" viewBox="0 0 176 28" fill="none" xmlns="http://www.w3.org/2000/svg">
<path d="M30.7088 25.556C22.0552 25.556 18.4421 22.7178 18.4421 15.6459C18.4421 7.87328 22.6018 6.5676 30.7088 6.5676C31.1767 6.5676 31.6273 6.57661 32.067 6.59111V4.60398C24.156 3.91783 19.8011 1.5937 16.0337 0C12.2663 1.5937 7.91144 3.91783 0.000401596 4.60359V6.59072C0.440551 6.57622 0.891141 6.56721 1.3586 6.56721C9.46561 6.56721 13.6253 7.87289 13.6253 15.6455C13.6253 22.7174 10.0122 25.5556 1.3586 25.5556L0 25.5666V27.7599H32.0674V25.5666L30.7088 25.556Z" fill="#FF6B00"></path>
<path d="M50.9562 27.5416H39.9082V26.5712C41.0947 26.1203 41.8524 25.6804 42.1798 25.2527C42.5072 24.8251 42.6709 23.9534 42.6709 22.6349V6.58114C42.6709 5.25166 42.5072 4.37859 42.1798 3.9633C41.8524 3.54938 41.0947 3.10942 39.9082 2.64616V1.67578H50.9562V2.64616C49.7575 3.09709 48.9998 3.53705 48.6846 3.96467C48.3694 4.3923 48.2124 5.264 48.2124 6.58251V22.6363C48.2124 23.9795 48.3762 24.858 48.7036 25.2719C49.031 25.6872 49.7818 26.1203 50.9562 26.5712V27.5416Z" fill="#FFFFFF"></path>
<path d="M63.7941 27.5417V26.6083C64.8034 26.1574 65.4216 25.7544 65.6503 25.3994C65.8789 25.0458 65.9993 24.2344 66.0115 22.9652V14.3428C66.0237 13.3176 65.7139 12.5309 65.0821 11.9813C64.4502 11.4317 63.648 11.1576 62.6766 11.1576C61.7038 11.1576 60.8109 11.4084 59.9978 11.9087V22.9652C59.9978 24.2344 60.1087 25.0403 60.3306 25.3816C60.5525 25.7229 61.187 26.1203 62.2328 26.5713V27.5417H52.6189V26.5713C53.3698 26.2177 53.8623 25.9614 54.0963 25.8024C54.601 25.4364 54.854 24.4907 54.854 22.9652V14.3798C54.854 12.6474 54.5698 11.5921 54.0003 11.2124C53.7216 11.0287 53.1398 10.7615 52.2563 10.4065V9.47449C54.831 9.30316 57.273 8.8029 59.5824 7.97369H59.9247V10.793C60.6661 10.0967 61.5902 9.45667 62.6955 8.87143C63.8008 8.28618 64.8399 7.99836 65.8126 8.01069C67.3807 8.01069 68.6632 8.53563 69.659 9.5855C70.6561 10.6354 71.154 12.3075 71.154 14.6005V22.9666C71.1418 24.2358 71.2554 25.0472 71.4963 25.4008C71.7357 25.7544 72.35 26.1574 73.3349 26.6096V27.5417H63.7941Z" fill="#FFFFFF"></path>
<path d="M90.9324 27.5416V26.5342C92.127 26.1066 92.8833 25.668 93.2012 25.2157C93.5178 24.7648 93.6707 23.8794 93.6585 22.5609V15.5859H83.1733V22.5609C83.1733 23.9041 83.3371 24.7936 83.6645 25.2335C83.9919 25.6735 84.7306 26.119 85.8819 26.5699V27.5403H74.907V26.5699C76.0705 26.119 76.8146 25.6667 77.142 25.2157C77.4694 24.7648 77.6331 23.8794 77.6331 22.5609V6.58114C77.6331 5.25166 77.4762 4.37859 77.161 3.9633C76.8457 3.54801 76.0948 3.10942 74.9083 2.64479V1.67578H85.8833V2.64616C84.7076 3.09709 83.9635 3.53705 83.6482 3.96467C83.333 4.3923 83.176 5.264 83.176 6.58251V13.0257H93.6612V6.58114C93.6612 5.2873 93.5083 4.42793 93.2039 4.00031C92.8873 3.57268 92.1311 3.13409 90.9351 2.6818V1.67578H101.929V2.64616C100.759 3.09709 100.008 3.54253 99.679 3.98249C99.3503 4.42245 99.1906 5.28867 99.2041 6.58114V22.5623C99.2163 23.9054 99.38 24.795 99.698 25.2349C100.015 25.6749 100.759 26.1203 101.93 26.5712V27.5416H90.9324Z" fill="#FFFFFF"></path>
<path d="M111.468 27.9994C108.803 27.9994 106.532 27.066 104.654 25.1993C102.788 23.3449 101.856 20.9162 101.856 17.9132C101.856 14.9102 102.802 12.5007 104.69 10.6819C106.592 8.8755 108.857 7.97228 111.486 7.97228C114.115 7.97228 116.379 8.8755 118.282 10.6819C120.172 12.5007 121.116 14.9102 121.116 17.9132C121.116 20.9162 120.172 23.3435 118.282 25.1993C116.392 27.0537 114.121 27.9871 111.468 27.9994ZM111.486 25.8202C114.212 25.8202 115.575 23.2092 115.575 17.9858C115.575 12.7625 114.212 10.1515 111.486 10.1515C108.76 10.1515 107.397 12.7639 107.397 17.9858C107.397 20.5735 107.713 22.5252 108.342 23.8438C108.972 25.1623 110.021 25.8202 111.486 25.8202Z" fill="#FFFFFF"></path>
<path d="M134.76 27.9994V25.1431C132.701 27.0469 130.708 27.9994 128.782 27.9994C127.292 27.9994 126.068 27.5115 125.111 26.5356C124.155 25.5598 123.676 23.9603 123.676 21.7399V14.3798C123.676 12.927 123.566 12.0183 123.348 11.6524C123.131 11.2864 122.495 10.8711 121.441 10.4079V9.47449C123.693 9.30316 126.026 8.8029 128.437 7.97369H128.818V21.0615C128.818 22.2087 129.146 23.0626 129.799 23.6245C130.454 24.1864 131.264 24.466 132.234 24.466C133.203 24.466 134.022 24.2892 134.687 23.9356V14.3798C134.687 12.6474 134.402 11.5921 133.834 11.2124C133.555 11.0287 132.973 10.7615 132.09 10.4065V9.47449C134.67 9.30316 137.123 8.8029 139.448 7.97369H139.83V21.3548C139.83 22.1237 139.847 22.7035 139.884 23.0941C139.908 23.4847 140.053 23.8383 140.319 24.1563C140.586 24.4852 140.828 24.699 141.046 24.7964C141.264 24.8937 141.736 25.0951 142.464 25.4008V26.3342C140.004 26.5535 137.551 27.1085 135.105 27.9994H134.76Z" fill="#FFFFFF"></path>
<path d="M150.419 25.8202C151.267 25.8202 151.964 25.6256 152.509 25.2349C153.055 24.8443 153.326 24.3139 153.326 23.6423C153.326 22.9707 153.011 22.3731 152.382 21.8482C151.752 21.3233 150.983 20.8477 150.074 20.42C149.165 19.9924 148.257 19.5292 147.348 19.0289C146.439 18.5286 145.67 17.8516 145.04 16.9963C144.409 16.1424 144.095 15.172 144.095 14.0852C144.095 12.3651 144.785 10.9177 146.167 9.74723C147.548 8.57537 149.231 7.98328 151.219 7.97094C153.205 7.97094 154.901 8.24506 156.307 8.79467V13.1874H155.217C153.63 11.1617 152.128 10.1488 150.71 10.1488C150.02 10.1488 149.414 10.3201 148.893 10.6614C148.372 11.0027 148.111 11.4797 148.111 12.0896C148.111 12.6872 148.438 13.2491 149.092 13.774C149.747 14.299 150.539 14.7691 151.472 15.183C152.404 15.5983 153.331 16.0561 154.252 16.5563C155.172 17.0566 155.961 17.7405 156.614 18.6068C157.269 19.473 157.595 20.4735 157.595 21.6084C157.607 23.5368 156.886 25.0801 155.433 26.2396C153.98 27.3991 152.259 27.9844 150.273 27.9967C147.813 27.9844 145.779 27.6184 144.167 26.8988L143.913 21.7728H145.167C146.755 24.4729 148.505 25.8202 150.419 25.8202Z" fill="#FFFFFF"></path>
<path d="M167.278 27.9994C164.698 27.9871 162.632 27.1154 161.081 25.3816C159.531 23.6492 158.756 21.2712 158.756 18.2476C158.756 15.2241 159.628 12.7529 161.372 10.8341C163.116 8.91527 165.163 7.96134 167.515 7.97367C169.865 7.97367 171.621 8.53561 172.784 9.65813C173.948 10.7806 174.528 12.7831 174.528 15.6627V17.5294H164.008C164.057 21.8989 165.998 24.0891 169.832 24.1014C171.567 24.1014 173.121 23.5642 174.492 22.491L175.201 23.2229C174.534 24.3701 173.462 25.4556 171.985 26.4808C170.506 27.5046 168.938 28.0118 167.278 27.9994ZM167.16 10.1515C165.106 10.1515 164.055 12.0128 164.006 15.7353L169.949 15.1227C169.924 13.3916 169.7 12.1307 169.275 11.3385C168.85 10.5476 168.145 10.1515 167.16 10.1515Z" fill="#FFFFFF"></path>
</svg>