<svg xmlns:xlink="http://www.w3.org/1999/xlink" width="116" height="38" viewBox="0 0 116 38" fill="none" xmlns="http://www.w3.org/2000/svg">
<path d="M2.70847 5.38681H0.424316V5.44391C2.51813 6.27192 3.546 7.86131 4.36449 11.5636L9.99875 37.5839H11.2741L5.61126 11.3542C4.63097 6.86199 3.6031 6.03399 2.70847 5.38681ZM6.99127 5.38681H4.84987V5.44391C5.81112 6.59551 6.08712 8.02311 6.84851 11.1353L12.5684 37.5839H13.8437L8.11432 11.0496C7.30534 7.64241 7.1721 6.7002 6.99127 5.38681ZM14.7193 35.7566L15.5664 33.9959L10.8077 11.554C9.97019 8.07069 10.1605 6.47178 10.5032 5.38681H8.6568C8.62825 6.80489 8.69487 7.98504 9.38012 10.964L14.7193 35.7566ZM16.4229 32.1971L17.2795 30.4079L13.4535 11.9442C12.7397 8.35621 13.0443 6.49082 14.234 5.43439V5.37729H12.1972C11.5691 6.70971 11.3788 8.05166 12.1021 11.5921L16.4229 32.1971ZM18.1361 28.6281L18.9926 26.8293L16.0898 12.0489C15.2904 7.88986 16.2516 6.07205 19.5161 5.44391V5.38681H16.4896C15.614 5.81509 13.7676 7.13799 14.805 12.068L18.1361 28.6281ZM23.8179 16.8457L23.9036 16.9028C25.9307 10.174 26.5779 7.1951 24.7887 5.37729H22.2571V5.43439C25.0837 6.44323 25.7214 9.32698 23.8179 16.8457ZM23.9892 16.9599L24.0749 17.017C27.2632 9.46974 28.0912 7.40448 29.4046 5.43439V5.37729H26.8159V5.45343C27.0823 8.47042 26.045 11.24 23.9892 16.9599ZM31.841 5.38681C29.1476 6.95717 27.5487 9.87898 24.1605 17.0741L24.2462 17.1312C28.1293 9.85043 30.3468 6.94765 35.3624 5.44391V5.38681H31.841ZM32.669 17.3501C32.6309 16.5792 32.1931 16.1795 31.4889 16.1795C29.8138 16.1795 27.996 18.8348 26.9015 21.5948H26.9681C28.0721 19.1393 29.7662 16.6934 30.7465 16.6934C31.1558 16.6934 31.4222 16.8933 31.4508 17.4072C31.4984 18.4826 29.7282 22.518 28.9953 24.2597L23.618 37.5934H24.9505L30.2802 24.3644C31.0416 22.4514 32.7356 18.6254 32.669 17.3501ZM35.0579 17.1883C35.0008 16.0081 34.2394 15.1992 32.9069 15.1992C30.0137 15.1992 27.7866 18.3018 26.7017 21.5853H26.7588C27.8913 18.654 29.8233 15.7131 32.1551 15.7131C33.1734 15.7131 33.7635 16.2746 33.8206 17.2549C33.9063 18.8348 32.3074 22.4133 31.546 24.4024L26.2639 37.5744H27.5868L32.7832 24.4976C33.6493 22.4038 35.153 18.9775 35.0579 17.1883ZM37.4467 17.036C37.3611 15.399 36.2761 14.1713 34.3345 14.1713C30.166 14.1713 27.6248 17.7688 26.5208 21.5758H26.5779C27.739 18.0258 30.1374 14.6852 33.5922 14.6852C35.2292 14.6852 36.1524 15.7036 36.2285 17.1407C36.3332 19.1298 34.9722 22.3467 34.0681 24.6023L28.9287 37.5744H30.3087L35.3529 24.6499C36.2475 22.2991 37.5704 19.3392 37.4467 17.036ZM39.8451 16.9408C39.7309 14.847 38.3223 13.21 35.7621 13.21C30.461 13.21 27.4059 17.1502 26.34 21.5853H26.4066C27.5868 17.4643 30.2897 13.724 35.0293 13.724C37.2754 13.724 38.5222 15.104 38.6269 16.9884C38.7601 19.4915 37.58 22.2515 36.6377 24.7546L31.6411 37.5744H32.9736L37.875 24.8593C38.9029 22.2515 39.9878 19.6438 39.8451 16.9408ZM52.8172 15.656C52.703 13.3052 51.3135 12.2298 49.6194 12.2298C46.5548 12.2298 43.8804 14.6472 42.253 17.9402C42.2625 17.569 42.2625 17.1788 42.2434 16.779C42.1102 14.2284 40.3685 12.2298 37.1993 12.2298C30.5562 12.2298 27.2632 16.6077 26.1782 21.5758H26.2353C27.3869 16.9218 30.4895 12.7437 36.4664 12.7437C39.3311 12.7437 40.9015 14.533 41.0252 16.8266C41.187 19.8436 40.1877 22.1944 39.1503 24.8973L34.306 37.5649H35.6384L40.4447 25.002C40.7683 24.1359 41.0728 23.3365 41.3488 22.5465C42.3196 20.5574 43.4902 18.5112 44.0993 18.5112C44.5562 18.5112 44.6989 18.9014 44.7275 19.2536C44.8322 20.586 44.3468 22.7654 43.2999 24.6404L43.357 24.6879C44.5752 23.6125 45.9362 20.3956 45.8505 18.7111C45.8124 18.0448 45.5364 17.588 44.8702 17.588C43.8328 17.588 42.5194 19.7199 41.5487 21.966C41.6629 21.6138 41.7581 21.2522 41.8532 20.8905C42.8906 18.6444 44.3277 16.7219 45.6982 16.7219C46.5167 16.7219 47.0021 17.2835 47.0497 18.2066C47.1639 20.4527 45.1462 23.7267 43.4617 24.7926L43.5188 24.8402C45.8124 23.8219 48.3441 20.4432 48.2013 17.6927C48.1347 16.465 47.4875 15.7988 46.4691 15.7988C44.7846 15.7988 43.1381 17.7593 42.015 20.1958C42.0531 20.0054 42.0816 19.8056 42.1197 19.6152C43.376 16.9979 45.2414 14.9232 47.2971 14.9232C48.4202 14.9232 49.2767 15.6941 49.3529 17.1693C49.5242 20.4337 46.4406 23.9075 43.633 24.9354L43.6901 24.983C47.1163 24.1169 50.7043 20.4337 50.5045 16.6553C50.4093 14.8661 49.391 14 48.068 14C45.6982 14 43.5854 16.1414 42.2149 18.9775C42.2339 18.8253 42.2339 18.6635 42.2434 18.5017C43.7567 15.4561 46.136 13.1434 48.8865 13.1434C50.3712 13.1434 51.5895 14.1142 51.7037 16.1604C51.9321 20.5003 47.8872 24.1835 43.7948 25.0972L43.8519 25.1448C48.6296 24.45 53.0742 20.5098 52.8172 15.656ZM62.0966 37.365L62.0585 37.4412C68.6731 35.6519 74.8783 24.1169 75.4018 18.4636C75.535 17.0075 74.8974 16.1509 73.8219 16.0081C72.2421 15.7892 70.2244 16.9884 68.7587 18.8633L68.8063 18.9204C70.0245 17.4548 71.671 16.4174 72.8417 16.5792C73.603 16.6839 74.1075 17.3501 74.0123 18.4351C73.5554 23.3936 67.8355 34.9 62.0966 37.365ZM61.9919 37.5839L61.9633 37.641C70.9667 36.5751 77.6193 25.6492 78.2856 18.5969C78.5045 16.2746 77.429 15.0374 75.8491 14.8185C73.4508 14.4854 70.4623 16.0938 68.6255 18.6825L68.6731 18.7396C70.4338 16.465 72.8797 15.1135 74.8213 15.38C76.2013 15.5703 77.0293 16.6077 76.8484 18.5017C76.2488 24.9164 70.1387 35.8803 61.9919 37.5839ZM81.1217 18.654C81.4168 15.5228 80.0177 13.9143 77.8192 13.6098C74.6595 13.172 70.8145 15.104 68.4827 18.5017L68.5303 18.5588C70.6622 15.6274 74.0884 13.8096 76.8389 14.1808C78.7234 14.4378 79.9892 15.8654 79.7322 18.6159C78.9994 26.4296 71.5568 37.1556 61.9062 37.7552L61.8777 37.8123C72.6132 37.7552 80.3223 27.1624 81.1217 18.654ZM79.8464 12.4106C75.8682 11.8681 71.0619 14.2094 68.3495 18.3113L68.3971 18.3684C70.9572 14.6757 75.2971 12.4867 78.8661 12.9816C81.2645 13.3147 82.9015 15.123 82.5684 18.6825C81.7213 27.7525 74.0789 37.9551 61.8396 37.917L61.8111 37.9837C74.5167 38.4595 83.1108 28.4663 84.0245 18.7111C84.3671 14.7804 82.5398 12.7818 79.8464 12.4106ZM60.5928 37.9075C54.6921 37.6601 51.7132 34.7763 52.0082 31.4357C52.1319 30.0081 52.6649 28.6947 53.1313 27.5146L59.9647 9.85995C60.8213 7.66145 62.4107 4.33038 61.1544 2.6934L59.603 3.01699V3.11217C60.926 4.59687 59.6982 7.02379 58.8036 9.48877L51.9987 27.0102C51.5419 28.1332 51.066 29.3419 50.9328 30.8266C50.6187 34.4718 53.8546 37.7648 60.5738 37.9646L60.5928 37.9075ZM61.4209 9.49829L54.2543 27.9714C53.7975 29.1421 53.1884 30.6077 53.0742 32.0924C52.8077 35.1285 55.4535 37.6125 60.6404 37.8028L60.669 37.7457C56.291 37.4983 53.9022 35.4235 54.1401 32.7015C54.2638 31.2739 54.93 29.5989 55.3869 28.4758L62.7913 9.46022C63.4576 7.71855 65.4181 3.45479 64.3617 2.02719L62.6771 2.36981V2.46499C63.8097 4.08293 62.2013 7.56627 61.4209 9.49829ZM64.238 9.09856L56.5194 28.9517C56.0626 30.1223 55.3298 31.9497 55.206 33.3297C54.9967 35.7566 56.9763 37.4221 60.6975 37.6886L60.7166 37.641C59.9457 37.5554 59.1938 37.3745 58.4705 37.1081C56.9477 36.5561 56.1863 35.4901 56.3196 33.9959C56.4433 32.5683 57.1856 30.6363 57.6425 29.4656L65.5514 9.15567C65.9511 8.08021 68.2067 2.95037 67.6642 1.38001L66.0368 1.68457V1.77974C66.8933 3.00748 64.7614 7.76614 64.238 9.09856ZM58.7846 29.913C58.3277 31.0931 57.5187 33.2155 57.395 34.5955C57.2427 36.3086 58.7465 37.2413 60.7642 37.5554L60.7927 37.4983C59.4127 37.2508 58.3468 36.5941 58.4705 35.2141C58.5847 33.8817 59.5174 31.5024 59.9171 30.4269L68.1496 9.29843C68.3495 8.73691 71.4712 1.17063 71.0238 0.685247L69.3393 1.02787V1.12304C69.4059 2.96941 67.2645 8.01359 66.8267 9.20325L58.7846 29.913ZM61.0497 30.8932C60.5928 32.0163 59.6126 34.4242 59.5555 35.7661C59.5269 36.3372 59.9647 37.0224 60.5453 37.3079C60.6404 37.3555 60.7356 37.3936 60.8308 37.4221L60.8688 37.3365C60.7071 37.2318 60.5072 36.8511 60.5548 36.3086C60.669 34.9762 61.7254 32.5778 62.1822 31.4072L74.4881 0L72.7941 0.342624C72.8892 0.742351 69.5582 8.93677 69.4154 9.34601L61.0497 30.8932ZM96.5683 37.4412L96.5398 37.4983C102.25 36.6798 108.132 24.6975 108.265 16.7124C108.294 14.9708 107.304 13.191 104.715 12.7627L104.687 12.8294C106.371 13.2767 107.028 14.3712 106.999 15.8463C106.866 23.6601 101.156 36.5941 96.5683 37.4412ZM96.4636 37.6601C104.268 36.8511 110.54 26.8103 110.692 18.5017C110.73 16.2461 109.255 13.0958 104.801 12.6009L104.772 12.658C108.275 13.191 109.512 15.6274 109.474 17.6356C109.331 25.7729 103.211 36.6988 96.4922 37.603L96.4636 37.6601ZM96.3875 37.8219C106.343 37.089 113.005 28.9232 113.157 20.3005C113.205 17.5309 111.244 12.9721 104.877 12.4582L104.848 12.5153C110.121 13.0673 111.996 16.9218 111.948 19.4439C111.796 27.9048 105.239 36.8701 96.4161 37.7743L96.3875 37.8219ZM104.953 12.2869L104.925 12.344C112.262 12.9626 114.375 18.1781 114.318 21.2141C114.166 29.9891 107.361 37.089 96.3399 37.917L96.3114 37.9741C108.36 37.2508 115.422 31.017 115.574 22.0802C115.641 18.7967 113.243 12.7723 104.953 12.2869ZM85.7186 28.9803C85.8709 20.2529 93.3895 13.1054 103.706 12.2774L103.735 12.2202C92.1809 12.934 84.6146 19.1679 84.4623 28.0571C84.4052 31.3406 86.8036 37.4221 95.1027 37.898L95.1312 37.8409C87.8219 37.3365 85.6615 32.0068 85.7186 28.9803ZM88.1455 30.7695C88.2883 22.4609 95.0646 13.3338 103.64 12.4296L103.668 12.3725C94.0653 13.1054 87.032 21.3188 86.8892 29.8463C86.8416 32.6159 88.8022 37.327 95.1788 37.7457L95.2074 37.6886C89.6778 37.1937 88.0979 33.2916 88.1455 30.7695ZM90.5629 32.5588C90.7057 24.6213 97.0823 13.4861 103.564 12.5914L103.592 12.5343C95.9878 13.3433 89.497 23.5364 89.3542 31.6356C89.3161 33.8912 90.8389 37.2318 95.2454 37.5934L95.274 37.5363C91.7621 37.1081 90.5248 34.5669 90.5629 32.5588ZM92.9898 34.348C93.1231 26.8389 99.0428 13.6478 103.487 12.7532L103.516 12.6961C98.0054 13.5051 91.9144 25.6968 91.7811 33.4344C91.7526 35.176 92.6377 37.1556 95.3311 37.4412L95.3596 37.3841C93.5133 37.07 92.9613 35.8327 92.9898 34.348Z" fill="#FFFFFF"></path>
</svg>